<?xml version="1.0" encoding="utf-8"?>
<!-- Generator: Adobe Illustrator 19.0.1, SVG Export Plug-In . SVG Version: 6.00 Build 0)  -->
<svg version="1.1" id="Слой_1" xmlns="http://www.w3.org/2000/svg" xmlns:xlink="http://www.w3.org/1999/xlink" x="0px" y="0px"
	 viewBox="0 0 129 143" style="enable-background:new 0 0 129 143;" xml:space="preserve">
<style type="text/css">
	.st0{fill:none;stroke:#C09B56;stroke-miterlimit:10;}
</style>
<path class="st0" d="M3.7,140h70.4c32.6,0,51.7-14.2,51.7-37.6V102c0-18.5-10.5-27.9-27.1-33.3c12.1-5.3,21.1-14.6,21.1-30.4v-0.4
	c0-9.4-3.3-16.6-8.8-22c-8-8-20.1-12.3-37.2-12.3h-70V140z M40.5,57.9v-24h24.6c11.3,0,17.2,4.3,17.2,11.7V46
	c0,8-6.4,11.9-17.9,11.9H40.5z M40.5,109.6V84.4h28.9c12.7,0,18.5,4.9,18.5,12.3v0.4c0,8-6.6,12.5-18.1,12.5H40.5z"/>
</svg>
